<svg xmlns="http://www.w3.org/2000/svg" viewBox="0 0 96 96" role="img" aria-label="Cooperacao">
  <defs>
    <linearGradient id="bg" x1="0" y1="0" x2="1" y2="1">
      <stop offset="0%" stop-color="#1e5c4f"/>
      <stop offset="100%" stop-color="#2fae8a"/>
    </linearGradient>
  </defs>
  <rect x="4" y="4" width="88" height="88" rx="22" fill="url(#bg)"/>
  <path d="M22 48l14-13a7 7 0 0 1 10 0l2 2a7 7 0 0 0 10 0l2-2a7 7 0 0 1 10 0L74 48" fill="none" stroke="#ecfff7" stroke-width="6" stroke-linecap="round" stroke-linejoin="round"/>
  <path d="M22 50l14 13a7 7 0 0 0 10 0l2-2a7 7 0 0 1 10 0l2 2a7 7 0 0 0 10 0L74 50" fill="none" stroke="#ecfff7" stroke-width="6" stroke-linecap="round" stroke-linejoin="round"/>
</svg>
