<svg xmlns="http://www.w3.org/2000/svg" viewBox="0 0 1920 1080" preserveAspectRatio="xMidYMid slice">
  <defs>
    <linearGradient id="sky" x1="0" y1="0" x2="1" y2="1">
      <stop offset="0%" stop-color="#030813"/>
      <stop offset="52%" stop-color="#0c2239"/>
      <stop offset="100%" stop-color="#192f46"/>
    </linearGradient>
    <radialGradient id="coreGlow" cx="78%" cy="22%" r="42%">
      <stop offset="0%" stop-color="#7cf4ff" stop-opacity="0.32"/>
      <stop offset="58%" stop-color="#38b5d6" stop-opacity="0.08"/>
      <stop offset="100%" stop-color="#00101a" stop-opacity="0"/>
    </radialGradient>
    <linearGradient id="fog" x1="0" y1="0" x2="0" y2="1">
      <stop offset="0%" stop-color="#62b9da" stop-opacity="0"/>
      <stop offset="100%" stop-color="#0a1929" stop-opacity="0.62"/>
    </linearGradient>
    <filter id="noise" x="-20%" y="-20%" width="140%" height="140%">
      <feTurbulence type="fractalNoise" baseFrequency="0.95" numOctaves="2" stitchTiles="stitch"/>
      <feColorMatrix type="saturate" values="0"/>
      <feComponentTransfer>
        <feFuncA type="table" tableValues="0 0.12"/>
      </feComponentTransfer>
    </filter>
  </defs>
  <rect width="1920" height="1080" fill="url(#sky)"/>
  <rect width="1920" height="1080" fill="url(#coreGlow)"/>
  <g opacity="0.42">
    <path fill="#172d44" d="M0 705h220l40-46h126l58 46h236l51-62h159l70 62h212l67-80h144l68 80h267v375H0z"/>
    <path fill="#0f2236" d="M0 760h212l44-52h146l65 52h216l57-70h184l81 70h238l62-74h182l54 74h179v320H0z"/>
    <path fill="#081526" d="M0 820h247l41-44h151l76 44h236l68-50h213l74 50h216l66-60h196l53 60h183v260H0z"/>
  </g>
  <g fill="#87def6" opacity="0.22">
    <rect x="169" y="562" width="8" height="16"/>
    <rect x="184" y="562" width="8" height="10"/>
    <rect x="199" y="562" width="8" height="21"/>
    <rect x="410" y="625" width="9" height="17"/>
    <rect x="425" y="625" width="9" height="11"/>
    <rect x="440" y="625" width="9" height="23"/>
    <rect x="761" y="585" width="8" height="17"/>
    <rect x="776" y="585" width="8" height="11"/>
    <rect x="791" y="585" width="8" height="23"/>
    <rect x="1053" y="612" width="8" height="17"/>
    <rect x="1068" y="612" width="8" height="11"/>
    <rect x="1083" y="612" width="8" height="23"/>
    <rect x="1408" y="564" width="8" height="17"/>
    <rect x="1423" y="564" width="8" height="11"/>
    <rect x="1438" y="564" width="8" height="23"/>
    <rect x="1659" y="618" width="8" height="17"/>
    <rect x="1674" y="618" width="8" height="11"/>
    <rect x="1689" y="618" width="8" height="23"/>
  </g>
  <g stroke="#65d4f3" stroke-opacity="0.2" stroke-width="2.5" fill="none">
    <path d="M130 230h322m58 0h180m66 0h268m74 0h432"/>
    <path d="M190 280h278m44 0h228m66 0h210m84 0h356"/>
    <path d="M116 330h242m86 0h302m58 0h206m74 0h408"/>
  </g>
  <rect x="0" y="0" width="1920" height="1080" fill="url(#fog)"/>
  <rect width="1920" height="1080" filter="url(#noise)" opacity="0.24"/>
</svg>
