<svg xmlns="http://www.w3.org/2000/svg" viewBox="0 0 1920 1080" preserveAspectRatio="xMidYMid slice">
  <defs>
    <linearGradient id="sky" x1="0" y1="0" x2="1" y2="1">
      <stop offset="0%" stop-color="#10354f"/>
      <stop offset="48%" stop-color="#1b5f76"/>
      <stop offset="100%" stop-color="#2f9558"/>
    </linearGradient>
    <radialGradient id="sun" cx="24%" cy="20%" r="28%">
      <stop offset="0%" stop-color="#fff7bf" stop-opacity="0.85"/>
      <stop offset="55%" stop-color="#ffd376" stop-opacity="0.28"/>
      <stop offset="100%" stop-color="#ffd376" stop-opacity="0"/>
    </radialGradient>
    <radialGradient id="aurora" cx="72%" cy="16%" r="44%">
      <stop offset="0%" stop-color="#a2fff3" stop-opacity="0.44"/>
      <stop offset="100%" stop-color="#64dbc6" stop-opacity="0"/>
    </radialGradient>
    <filter id="grain">
      <feTurbulence type="fractalNoise" baseFrequency="0.8" numOctaves="2" stitchTiles="stitch"/>
      <feColorMatrix type="saturate" values="0"/>
      <feComponentTransfer>
        <feFuncA type="table" tableValues="0 0.08"/>
      </feComponentTransfer>
    </filter>
  </defs>
  <rect width="1920" height="1080" fill="url(#sky)"/>
  <rect width="1920" height="1080" fill="url(#sun)"/>
  <rect width="1920" height="1080" fill="url(#aurora)"/>

  <g fill="#5ed7b0" opacity="0.5">
    <path d="M0 782h217l48-58h144l58 58h214l58-72h184l78 72h242l74-80h190l66 80h347v298H0z"/>
  </g>
  <g fill="#3dc79b" opacity="0.36">
    <path d="M0 842h260l64-54h188l76 54h214l70-62h244l70 62h212l82-72h218l68 72h154v238H0z"/>
  </g>

  <g fill="#b6ffd2" opacity="0.42">
    <rect x="214" y="654" width="10" height="24"/>
    <rect x="230" y="654" width="10" height="14"/>
    <rect x="246" y="654" width="10" height="32"/>
    <rect x="626" y="648" width="10" height="24"/>
    <rect x="642" y="648" width="10" height="14"/>
    <rect x="658" y="648" width="10" height="32"/>
    <rect x="1028" y="630" width="10" height="24"/>
    <rect x="1044" y="630" width="10" height="14"/>
    <rect x="1060" y="630" width="10" height="32"/>
    <rect x="1398" y="612" width="10" height="24"/>
    <rect x="1414" y="612" width="10" height="14"/>
    <rect x="1430" y="612" width="10" height="32"/>
  </g>

  <g stroke="#d7ffde" stroke-opacity="0.24" stroke-width="2.4" fill="none">
    <path d="M118 252h320m56 0h314m78 0h300m70 0h408"/>
    <path d="M156 298h264m66 0h324m74 0h266m88 0h402"/>
  </g>

  <rect width="1920" height="1080" filter="url(#grain)" opacity="0.18"/>
</svg>
